<svg id="Group_353" data-name="Group 353" xmlns="http://www.w3.org/2000/svg" width="26.338" height="30.496" viewBox="0 0 26.338 30.496">
  <path id="Path_182" data-name="Path 182" d="M-980.133,1622.5c.682,0,1.216-.025,1.746,0a3.709,3.709,0,0,1,3.576,3.516q.123,3.973.006,7.952a3.776,3.776,0,0,1-3.762,3.616c-.476.016-.953,0-1.524,0-.015.343-.039.639-.039.936,0,3.018-.022,6.037.011,9.055.009.807-.256,1.075-1.075,1.071q-9.436-.042-18.872,0c-.776,0-1.02-.245-1.019-1.024q.033-14.217,0-28.434c0-.779.261-1.036,1.029-1.033q9.436.03,18.872,0c.83,0,1.1.308,1.062,1.1C-980.168,1620.3-980.133,1621.338-980.133,1622.5Zm-19.876,25.057h18.8v-9.9h-6.569c0,.912.027,1.757-.016,2.6a1.093,1.093,0,0,1-.347.765c-.126.089-.525-.085-.724-.24-2.822-2.2-5.627-4.425-8.443-6.634-.542-.425-.525-.78.017-1.2,2.8-2.188,5.578-4.4,8.378-6.581.218-.17.678-.362.788-.267a1.293,1.293,0,0,1,.333.854c.042.829.015,1.661.015,2.5h6.552v-10.225h-18.783Zm11.215-8c0-.764.035-1.348-.009-1.925-.06-.8.232-1.085,1.063-1.073,2.985.044,5.972.025,8.958.013a2.643,2.643,0,0,0,2.841-2.047,42.547,42.547,0,0,0,.045-4.8,10.993,10.993,0,0,1-2.651.756c-3.124.095-6.253.024-9.38.047-.679.005-.9-.279-.873-.91s.006-1.255.006-2.074l-7.618,6.011Zm8.694-10.109c1.575.157,3.022.171,3.931-1.354a3.271,3.271,0,0,0-.172-3.438c-.977-1.3-2.33-1.245-3.76-1.088Z" transform="translate(1001.085 -1618.161)" fill="#fff"/>
  <path id="Path_183" data-name="Path 183" d="M-976.108,1641.884c2.223,0,4.446,0,6.669,0,.4,0,.964-.126.985.483s-.53.528-.943.528q-6.753,0-13.506,0c-.141,0-.311.048-.416-.014a4.767,4.767,0,0,1-.59-.473c.209-.175.392-.43.632-.505a3.188,3.188,0,0,1,.922-.022Z" transform="translate(986.816 -1637.849)" fill="#fff"/>
  <path id="Path_184" data-name="Path 184" d="M-976.087,1770.038h6.5a1.717,1.717,0,0,1,.667.029c.2.09.447.314.455.49.007.155-.261.374-.454.472a1.41,1.41,0,0,1-.583.024H-982.84c-.169,0-.368.053-.5-.018a3.508,3.508,0,0,1-.571-.477,2.942,2.942,0,0,1,.572-.5,1.415,1.415,0,0,1,.583-.022Z" transform="translate(986.817 -1744.315)" fill="#fff"/>
  <path id="Path_185" data-name="Path 185" d="M-979.608,1755.965c1.182,0,2.366-.028,3.546.022.257.011.5.3.751.466-.238.175-.474.5-.714.5q-3.589.057-7.178,0c-.238,0-.472-.331-.708-.509.252-.161.5-.449.756-.46C-981.974,1755.937-980.791,1755.965-979.608,1755.965Z" transform="translate(986.818 -1732.634)" fill="#fff"/>
  <path id="Path_186" data-name="Path 186" d="M-979.614,1657.134c-1.154,0-2.308.031-3.459-.022-.286-.013-.56-.295-.84-.453.266-.18.53-.512.8-.517q3.5-.062,7,0c.269,0,.532.338.8.519-.28.157-.555.438-.842.451C-977.305,1657.165-978.46,1657.134-979.614,1657.134Z" transform="translate(986.819 -1649.688)" fill="#fff"/>
  <path id="Path_187" data-name="Path 187" d="M-980.9,1671.486c-.787,0-1.577.036-2.359-.023-.234-.018-.448-.3-.672-.469.214-.172.424-.487.642-.494q2.317-.065,4.637,0c.224.006.44.3.66.467-.238.174-.465.474-.718.5C-979.437,1671.531-980.172,1671.487-980.9,1671.486Z" transform="translate(986.837 -1661.614)" fill="#fff"/>
  <path id="Path_188" data-name="Path 188" d="M-980.916,1742.768c-.76,0-1.523.044-2.276-.025-.254-.023-.483-.332-.723-.51.25-.16.5-.45.75-.457q2.234-.065,4.471,0c.241.007.474.317.71.486-.246.168-.481.457-.74.481C-979.45,1742.812-980.185,1742.769-980.916,1742.768Z" transform="translate(986.822 -1720.826)" fill="#fff"/>
  <path id="Path_189" data-name="Path 189" d="M-912.954,1670.425a6.36,6.36,0,0,1,1.256.023c.237.049.427.325.638.5-.2.161-.386.448-.591.46a23.634,23.634,0,0,1-2.687,0c-.2-.012-.394-.3-.59-.458.21-.175.4-.457.634-.5A7.372,7.372,0,0,1-912.954,1670.425Z" transform="translate(929.51 -1661.561)" fill="#fff"/>
  <path id="Path_190" data-name="Path 190" d="M-912.978,1755.908a6.781,6.781,0,0,1,1.26.021c.244.047.447.3.669.466-.209.175-.409.486-.629.5a19.386,19.386,0,0,1-2.609,0c-.218-.015-.416-.329-.623-.506.223-.161.428-.415.672-.461A6.846,6.846,0,0,1-912.978,1755.908Z" transform="translate(929.496 -1732.577)" fill="#fff"/>
  <path id="Path_191" data-name="Path 191" d="M-912.818,1657.2a10.653,10.653,0,0,1-1.428-.022c-.182-.025-.464-.3-.461-.449a.665.665,0,0,1,.432-.493c.979-.046,1.962-.045,2.941,0,.159.008.422.329.419.5,0,.155-.289.413-.476.438A10.52,10.52,0,0,1-912.818,1657.2Z" transform="translate(929.326 -1649.765)" fill="#fff"/>
  <path id="Path_192" data-name="Path 192" d="M-912.926,1741.762a9.653,9.653,0,0,1,1.343.02c.2.028.36.269.538.413-.171.187-.334.526-.515.536a27.028,27.028,0,0,1-2.857,0c-.171-.009-.328-.307-.492-.472.184-.166.35-.444.555-.476A9.382,9.382,0,0,1-912.926,1741.762Z" transform="translate(929.494 -1720.828)" fill="#fff"/>
  <path id="Path_193" data-name="Path 193" d="M-982.284,1684.771a4.892,4.892,0,0,1,1,.018c.2.043.367.263.548.4-.166.191-.318.53-.5.547a12.508,12.508,0,0,1-2.179,0c-.183-.016-.338-.352-.506-.542.18-.142.343-.37.542-.408A5.862,5.862,0,0,1-982.284,1684.771Z" transform="translate(986.822 -1673.482)" fill="#fff"/>
  <path id="Path_194" data-name="Path 194" d="M-982.164,1728.425a5.275,5.275,0,0,1-1.085-.021c-.188-.041-.458-.3-.458-.459a.655.655,0,0,1,.442-.474,13.843,13.843,0,0,1,2.175-.007c.191.016.357.331.535.509-.173.152-.328.394-.524.434a5.49,5.49,0,0,1-1.086.02Z" transform="translate(986.648 -1708.931)" fill="#fff"/>
</svg>
