<svg xmlns="http://www.w3.org/2000/svg" width="33.433" height="30.496" viewBox="0 0 33.433 30.496">
  <g id="Group_355" data-name="Group 355" transform="translate(0)">
    <path id="Path_216" data-name="Path 216" d="M-1211.022,1420.086a10.809,10.809,0,0,1,8.186,4.283,10.666,10.666,0,0,1,.326,12.562,10.866,10.866,0,0,1-11.925,4.295,2.689,2.689,0,0,0-1.487.051,19.445,19.445,0,0,1-13.6-.2,11.671,11.671,0,0,1-2.909-1.764,4.306,4.306,0,0,1-1.62-3.582c.029-5.689.042-11.379.007-17.068a4.792,4.792,0,0,1,1.872-3.944,12.533,12.533,0,0,1,6.1-2.5,19.582,19.582,0,0,1,10.137.817,12.266,12.266,0,0,1,2.391,1.2,4.91,4.91,0,0,1,2.529,4.724C-1211.044,1419.3-1211.022,1419.642-1211.022,1420.086Zm-.422,19.319a8.541,8.541,0,0,0,8.588-8.513,8.538,8.538,0,0,0-8.443-8.563,8.533,8.533,0,0,0-8.632,8.464A8.536,8.536,0,0,0-1211.443,1439.4Zm-11.1-25.394a37.133,37.133,0,0,0-4.553.753,12.859,12.859,0,0,0-3.65,1.714c-1.4.954-1.384,2.182-.145,3.325a6.053,6.053,0,0,0,1.74,1.208,16.734,16.734,0,0,0,13.5-.132c1.134-.5,2.337-1.2,2.348-2.614.012-1.468-1.246-2.117-2.385-2.689A17.887,17.887,0,0,0-1222.539,1414.011Zm-9.226,21.487a2.653,2.653,0,0,0,1.552,2.764,13.448,13.448,0,0,0,6.706,1.864,15.836,15.836,0,0,0,5.572-.593c-1.562-1.7-1.562-1.7-3.681-1.624l-.278.008A17.337,17.337,0,0,1-1231.766,1435.5Zm11.644-11.046c-4.162.327-8.068-.092-11.659-2.3a2.828,2.828,0,0,0,1.765,2.869,14.95,14.95,0,0,0,8.229,1.738.822.822,0,0,0,.567-.349C-1220.844,1425.81-1220.524,1425.18-1220.121,1424.452Zm-1.762,9.032a17.6,17.6,0,0,1-9.9-2.464c-.18,1.548.745,2.329,1.806,2.936a15.874,15.874,0,0,0,8.868,1.7Zm-.158-4.456a17.579,17.579,0,0,1-9.717-2.434,2.218,2.218,0,0,0,.924,2.279c2.54,2,5.533,2.312,8.62,2.371Z" transform="translate(1234.055 -1411.913)" fill="#fff"/>
    <path id="Path_217" data-name="Path 217" d="M-1136.071,1484.628a5.524,5.524,0,0,0-1.3-.386c-1.172-.055-2.348-.017-3.523-.02-.75,0-1.3-.308-1.294-1.118s.544-1.111,1.3-1.111q4.266,0,8.531,0c.756,0,1.3.321,1.305,1.113s-.55,1.116-1.3,1.115h-1.2l-.116.276a5.8,5.8,0,0,0,.833.454,2.516,2.516,0,0,0,.644.018,1.072,1.072,0,0,1,1.145,1.088,1.061,1.061,0,0,1-1.1,1.125c-.4.034-.8.006-1.219.006a4.338,4.338,0,0,1-4.841,3.126l2.44,2.442c.24.241.5.469.715.727a1.062,1.062,0,0,1,0,1.577,1.044,1.044,0,0,1-1.574-.029c-.981-.941-1.931-1.915-2.893-2.877-.7-.7-1.392-1.406-2.1-2.1-.425-.416-.811-.929-.422-1.451a1.943,1.943,0,0,1,1.282-.644c1.137-.089,2.287.01,3.428-.048a5.09,5.09,0,0,0,1.273-.411l-.081-.312c-1.589,0-3.178.013-4.767-.005-.894-.01-1.437-.574-1.277-1.307a1.148,1.148,0,0,1,1.306-.918c1.572.01,3.144,0,4.716,0Z" transform="translate(1159.263 -1468.982)" fill="#fff"/>
  </g>
</svg>
