<svg id="Group_351" data-name="Group 351" xmlns="http://www.w3.org/2000/svg" width="28.297" height="30.496" viewBox="0 0 28.297 30.496">
  <path id="Path_128" data-name="Path 128" d="M456.2,1263.08v-16.822h8.646v16.822Zm3.753-12.735v5.123l-1.006.055v1.008h3.188v-1.006l-1.053-.071v-.653c0-1.885.011-3.769-.016-5.654a.842.842,0,0,0-.334-.653.87.87,0,0,0-.7.2c-.549.431-1.058.913-1.583,1.375l.211.09.622.765Z" transform="translate(-446.384 -1232.586)" fill="#fff"/>
  <path id="Path_129" data-name="Path 129" d="M384.2,1290.709v-12.463h8.646v12.463Z" transform="translate(-384.203 -1260.214)" fill="#fff"/>
  <path id="Path_130" data-name="Path 130" d="M441.939,1156.384v-2.521a13.482,13.482,0,0,1-2.306-.846,2.353,2.353,0,0,1-.964-2.124c-.388,0-.748.016-1.106,0a1.61,1.61,0,0,1-1.592-1.623c-.022-.84.006-1.681-.007-2.521-.007-.5.2-.761.722-.76q6.1.007,12.2,0c.528,0,.727.262.719.763-.012.795.006,1.59-.006,2.385a1.641,1.641,0,0,1-1.736,1.76c-.294.007-.588,0-.937,0a2.454,2.454,0,0,1-1.215,2.281,14.643,14.643,0,0,1-2.6.641v2.53h3.2v1.094h-7.027v-1.057Zm-3.29-6.579v-2.674h-1.591c0,.592,0,1.133,0,1.673,0,.929.078,1,1.01,1Zm8.26-2.7v2.694a4.337,4.337,0,0,0,1.022-.02c.215-.055.528-.29.542-.465.061-.729.026-1.466.026-2.209Z" transform="translate(-428.905 -1145.985)" fill="#fff"/>
  <path id="Path_131" data-name="Path 131" d="M528.338,1310.208h8.646v8.1h-8.646Z" transform="translate(-508.686 -1287.817)" fill="#fff"/>
</svg>
