<svg id="Group_352" data-name="Group 352" xmlns="http://www.w3.org/2000/svg" width="25.741" height="30.496" viewBox="0 0 25.741 30.496">
  <path id="Path_132" data-name="Path 132" d="M-108.047,1189.2a.149.149,0,0,0-.085-.039,1.773,1.773,0,0,1-1.4-1.415c-.008-.034-.021-.067-.032-.1v-27.379c.013-.048.028-.1.04-.145a1.778,1.778,0,0,1,1.376-1.367l.161-.043H-85.4a.916.916,0,0,0,.1.032,1.779,1.779,0,0,1,1.475,1.764q0,13.453,0,26.906a1.685,1.685,0,0,1-.855,1.513,4.839,4.839,0,0,1-.652.281m.343-15.251q0-6.691,0-13.383a.633.633,0,0,0-.721-.712h-21.872c-.072,0-.144,0-.217,0a.6.6,0,0,0-.559.41,1.164,1.164,0,0,0-.039.345q0,13.337,0,26.674c0,.061,0,.122,0,.183a.621.621,0,0,0,.58.573c.082.005.165,0,.247,0H-85.82c.072,0,.144,0,.217,0a.618.618,0,0,0,.595-.468,1.182,1.182,0,0,0,.019-.272Q-84.989,1180.63-84.99,1173.954Z" transform="translate(109.565 -1158.709)" fill="#fff"/>
  <path id="Path_133" data-name="Path 133" d="M51.791,1346.6l.438-.9c.551-1.136,1.1-2.271,1.651-3.408a.8.8,0,0,0,.076-.334c0-1.509,0-3.018,0-4.527v-.226a4.975,4.975,0,0,1,4.463,2.657,4.922,4.922,0,0,1-1.032,5.9A5.064,5.064,0,0,1,51.791,1346.6Z" transform="translate(-35.434 -1319.366)" fill="#fff"/>
  <path id="Path_134" data-name="Path 134" d="M19.172,1393.351a4.9,4.9,0,0,1-2.845-4.45h5.006Z" transform="translate(-3.564 -1365.907)" fill="#fff"/>
  <path id="Path_135" data-name="Path 135" d="M36.582,1284.458H32.947a.73.73,0,1,1-.063-1.458c.031,0,.062,0,.093,0H40.2a.749.749,0,0,1,.714.4.72.72,0,0,1-.62,1.06c-.376.011-.753,0-1.129,0Z" transform="translate(-17.801 -1270.584)" fill="#fff"/>
  <path id="Path_136" data-name="Path 136" d="M36.579,1194.644c-1.216,0-2.433,0-3.649,0a.728.728,0,1,1-.032-1.456c.18-.006.361,0,.541,0H40.2a.745.745,0,0,1,.778.565.727.727,0,0,1-.731.894Q38.412,1194.646,36.579,1194.644Z" transform="translate(-17.798 -1189.74)" fill="#fff"/>
  <path id="Path_137" data-name="Path 137" d="M-77.23,1333.3q-1.817,0-3.634,0a.73.73,0,0,1-.757-.887.732.732,0,0,1,.727-.569c.273-.006.546,0,.819,0h6.463a.739.739,0,0,1,.782.578.72.72,0,0,1-.674.874c-.309.014-.618.006-.928.006Z" transform="translate(84.469 -1314.543)" fill="#fff"/>
  <path id="Path_138" data-name="Path 138" d="M36.577,1239.581c-1.216,0-2.433,0-3.649,0a.729.729,0,1,1,0-1.457c.263,0,.526,0,.789,0H40.19a.741.741,0,0,1,.781.561.724.724,0,0,1-.668.892c-.19.011-.381,0-.572,0Z" transform="translate(-17.795 -1230.189)" fill="#fff"/>
  <path id="Path_139" data-name="Path 139" d="M-77.3,1378.173q-1.825,0-3.649,0a.7.7,0,0,1-.669-.411.683.683,0,0,1,.072-.748.777.777,0,0,1,.676-.3q2.489,0,4.979,0c.753,0,1.505,0,2.258,0a.731.731,0,0,1,.744.911.725.725,0,0,1-.729.545c-.969,0-1.938,0-2.907,0Z" transform="translate(84.519 -1354.937)" fill="#fff"/>
  <path id="Path_140" data-name="Path 140" d="M-77.229,1421.717q1.81,0,3.62,0a.727.727,0,0,1,.774.622.726.726,0,0,1-.675.824c-.077,0-.155,0-.232,0h-7.116a.727.727,0,0,1-.792-.652.718.718,0,0,1,.647-.788c.128-.011.258-.006.386-.006Z" transform="translate(84.485 -1395.444)" fill="#fff"/>
  <path id="Path_141" data-name="Path 141" d="M-79.451,1206.475h8.66c.284,0,.429.1.432.3s-.143.3-.425.3h-8.863c-.338,0-.427-.088-.427-.427q0-4.344,0-8.688a1.541,1.541,0,0,1,0-.182.306.306,0,0,1,.3-.272.307.307,0,0,1,.306.251,1,1,0,0,1,.008.182q0,4.13,0,8.261Z" transform="translate(83.064 -1193.635)" fill="#fff"/>
  <path id="Path_142" data-name="Path 142" d="M-64.411,1201.438l-.272-.013,1.067-.8-.192,1.311-.151-.238c-.049.08-.091.147-.132.216l-1.965,3.3c-.173.29-.212.3-.532.2l-1.208-.375a.272.272,0,0,0-.049,0l-.334.69q-.315.653-.631,1.306a.269.269,0,0,1-.411.154l-1.464-.614-.172-.068-1.336,2.624a.335.335,0,0,1-.023-.069c0-.315-.005-.63,0-.944a.387.387,0,0,1,.056-.156q.458-.907.919-1.812c.113-.223.214-.261.447-.164l1.6.673c.029-.054.057-.1.08-.149q.438-.907.876-1.815c.106-.219.191-.255.431-.181.408.126.816.251,1.223.381.074.024.12.024.164-.051q.99-1.67,1.985-3.337A.545.545,0,0,0-64.411,1201.438Z" transform="translate(76.008 -1196.435)" fill="#fff"/>
  <path id="Path_143" data-name="Path 143" d="M-.623,1223.695H-1.791v-.17q0-2.3,0-4.6a.565.565,0,0,1,.074-.27c.315-.541.638-1.078.959-1.616.023-.038.048-.075.1-.148a1.064,1.064,0,0,1,.045.2q0,3.267,0,6.535A.708.708,0,0,1-.623,1223.695Z" transform="translate(12.717 -1211.079)" fill="#fff"/>
  <path id="Path_144" data-name="Path 144" d="M23.491,1331.959v4.935H18.5A4.933,4.933,0,0,1,23.491,1331.959Zm-.315,4.628v-4.325a4.692,4.692,0,0,0-3.216,1.579,4.508,4.508,0,0,0-1.158,2.747Z" transform="translate(-5.511 -1314.652)" fill="#fff"/>
  <path id="Path_145" data-name="Path 145" d="M-18.568,1248.85v-3.39c.051.013.095.021.137.034a.584.584,0,0,0,.82-.314l.209-.341v4.01Z" transform="translate(27.792 -1236.236)" fill="#fff"/>
  <path id="Path_146" data-name="Path 146" d="M-34.271,1251.92h-1.184v-.167q0-.861,0-1.721a.4.4,0,0,1,.019-.164c.257-.542.52-1.081.778-1.616a.143.143,0,0,1,.041,0c.346.1.346.1.346.447v3.226Z" transform="translate(42.968 -1239.303)" fill="#fff"/>
  <path id="Path_147" data-name="Path 147" d="M-52.187,1265.478l1.164.461v1.487h-1.164Z" transform="translate(58.003 -1254.813)" fill="#fff"/>
  <path id="Path_148" data-name="Path 148" d="M-67.234,1263.775v2.111h-1.1l1.075-2.119Z" transform="translate(72.512 -1253.272)" fill="#fff"/>
</svg>
