<svg id="Group_350" data-name="Group 350" xmlns="http://www.w3.org/2000/svg" width="33.969" height="33.834" viewBox="0 0 33.969 33.834">
  <path id="Path_123" data-name="Path 123" d="M993.98,1129.2a6.832,6.832,0,0,0,.663.366,5.9,5.9,0,0,1,3.975,5.647,5.811,5.811,0,0,1-3.72,5.674c-.191.088-.39.156-.678.27l4.387.995c-2.129.949-3.854,1.73-5.593,2.478a1.054,1.054,0,0,1-.752,0c-1.739-.748-3.464-1.529-5.593-2.478l4.361-.989c-2.544-.981-4.14-2.669-4.356-5.417a6.019,6.019,0,0,1,3.589-6.025c.351-.159.689-.346,1.034-.521Z" transform="translate(-975.655 -1129.199)" fill="#fff"/>
  <path id="Path_124" data-name="Path 124" d="M853.26,1347.622c.62-.953,1.4-1.678,2.625-1.268s1.44,1.435,1.4,2.581c-.026.841-.02,1.684,0,2.526.025,1.119-.108,2.149-1.33,2.626-1.242.485-1.972-.308-2.7-1.1Z" transform="translate(-853.26 -1328.295)" fill="#fff"/>
  <path id="Path_125" data-name="Path 125" d="M892.119,1318.46a47.7,47.7,0,0,0-5.783-2.589,43.667,43.667,0,0,0-6.671-1.232c-1.485-.2-1.707-.35-1.566-1.936,3.194-1.011,3.911-2,3.915-5.413q0-.871,0-1.741c-.008-3.2-.72-4.15-3.887-5.182-.208-1.6.005-1.857,1.513-1.844a24.669,24.669,0,0,1,11.588,2.787,2.827,2.827,0,0,1,.872,1.008c.1.158.02.436.02.659C892.12,1308.106,892.119,1313.236,892.119,1318.46Z" transform="translate(-875.98 -1284.693)" fill="#fff"/>
  <path id="Path_126" data-name="Path 126" d="M1070.286,1318.893c0-5.512-.013-10.821.029-16.13a1.4,1.4,0,0,1,.664-.98,24.1,24.1,0,0,1,12.229-2.855c.4.008.879.653,1.132,1.107.069.123-.5.809-.87.934a3.964,3.964,0,0,0-3.04,3.787c-.074,1.111-.044,2.231-.037,3.347.017,2.963,1,4.2,3.92,4.907.205,1.027.123,1.938-1.221,1.944a23.51,23.51,0,0,0-12.136,3.677A5.507,5.507,0,0,1,1070.286,1318.893Z" transform="translate(-1052.457 -1285.059)" fill="#fff"/>
  <path id="Path_127" data-name="Path 127" d="M1218.527,1350.711a16.329,16.329,0,0,1-.015,2,1.878,1.878,0,0,1-1.981,1.8,1.842,1.842,0,0,1-1.953-1.821,33.05,33.05,0,0,1,0-4.278,1.848,1.848,0,0,1,1.914-1.854,1.925,1.925,0,0,1,2.034,1.879c.069.752.013,1.515.013,2.273Z" transform="translate(-1184.589 -1328.587)" fill="#fff"/>
</svg>
