<svg id="Group_354" data-name="Group 354" xmlns="http://www.w3.org/2000/svg" width="21.912" height="30.495" viewBox="0 0 21.912 30.495">
  <path id="Path_195" data-name="Path 195" d="M-1652.2,1456.592a2.682,2.682,0,0,0,.141,1.47,6.687,6.687,0,0,0,.577,1.031,1.588,1.588,0,0,1,0,1.981,3.367,3.367,0,0,0-.7,1.513,6.978,6.978,0,0,0-.015,1.183,1.608,1.608,0,0,1-1.016,1.7,3.217,3.217,0,0,0-1.369.983,9.727,9.727,0,0,0-.615,1.072,1.542,1.542,0,0,1-1.469.9c-.212,0-.424-.012-.636-.03a2.922,2.922,0,0,0-1.976.561c-.089.063-.18.123-.27.184a1.578,1.578,0,0,1-1.911.008,4.481,4.481,0,0,0-1.22-.66,3.26,3.26,0,0,0-1.089-.116,5.113,5.113,0,0,1-.994-.01,1.4,1.4,0,0,1-1.026-.765c-.152-.269-.284-.55-.435-.82a2.792,2.792,0,0,0-1.193-1.108,6.719,6.719,0,0,1-.823-.461,1.383,1.383,0,0,1-.589-1.2c.006-.419.031-.838.008-1.255a2.58,2.58,0,0,0-.454-1.265c-.106-.164-.218-.324-.323-.488a1.561,1.561,0,0,1,.037-1.879,3.571,3.571,0,0,0,.718-1.524,5.353,5.353,0,0,0,.039-.719c0-.253-.025-.505-.022-.757a1.453,1.453,0,0,1,.807-1.308c.274-.156.56-.29.833-.446a2.513,2.513,0,0,0,.968-.979c.18-.325.346-.66.547-.971a1.465,1.465,0,0,1,1.377-.649,10.209,10.209,0,0,0,1.269-.008,3.321,3.321,0,0,0,1.529-.7,1.563,1.563,0,0,1,1.977,0,3.323,3.323,0,0,0,1.513.7,7.872,7.872,0,0,0,1.184.012,1.572,1.572,0,0,1,1.665.963c.13.255.261.511.41.756a2.756,2.756,0,0,0,1.146,1.013,6.159,6.159,0,0,1,.808.454,1.38,1.38,0,0,1,.593,1.114C-1652.194,1456.255-1652.2,1456.439-1652.2,1456.592Zm-8.31-4.246a7.729,7.729,0,0,0-7.736,7.747,7.7,7.7,0,0,0,7.646,7.722,7.681,7.681,0,0,0,7.814-7.794A7.719,7.719,0,0,0-1660.509,1452.345Z" transform="translate(1671.288 -1450.704)" fill="#fff"/>
  <path id="Path_196" data-name="Path 196" d="M-1678.305,1760.936c.057.171.207.1.348.166l-2.352,3.16-.038-.01c.024-.24.047-.481.072-.721.125-1.193.254-2.385.375-3.577a1.645,1.645,0,0,0-.006-.526.559.559,0,0,0-.739-.4c-.4.145-.8.317-1.194.482q-1.53.637-3.059,1.277c-.025.011-.052.017-.118.037.16-.22.3-.411.438-.6l2.807-3.765q1.059-1.42,2.123-2.837c.03-.039.106-.085.141-.073a2.9,2.9,0,0,0,1.394.127,2.152,2.152,0,0,1,1.642.454,2.879,2.879,0,0,0,1.889.624,3,3,0,0,0,1.665-.623.87.87,0,0,1,.251-.135c-.152.208-.3.418-.457.625q-.492.662-.987,1.322l-2.777,3.721c-.3.4-.591.79-.884,1.187A.333.333,0,0,1-1678.305,1760.936Z" transform="translate(1685.473 -1734.766)" fill="#fff"/>
  <path id="Path_197" data-name="Path 197" d="M-1501.267,1764.593l-4.865-6.527a9.277,9.277,0,0,1,.965-1.272c.125-.186.244-.376.378-.556q.8-1.079,1.608-2.15a.28.28,0,0,1,.167-.094c.326-.049.654-.087,1.016-.134l5.38,7.213-.013.027c-.2-.081-.4-.16-.592-.242q-1.794-.746-3.587-1.493a.71.71,0,0,0-.629.007c-.078.039-.193.006-.33.006l.194.08c-.251.308-.142.655-.112.993.023.257.06.513.082.77a.987.987,0,0,1-.039.229.52.52,0,0,1,.077.169c.1.94.2,1.881.3,2.822C-1501.265,1764.474-1501.267,1764.508-1501.267,1764.593Z" transform="translate(1517.685 -1735.056)" fill="#fff"/>
  <path id="Path_198" data-name="Path 198" d="M-1585.127,1523.325a1.624,1.624,0,0,1,.5,1.145c0,.3-.013.608-.025.912a2.782,2.782,0,0,0,.576,1.777,2.543,2.543,0,0,1,.49.992,1.937,1.937,0,0,1-.42,1.546,2.8,2.8,0,0,0-.584,1.231c-.04.3-.034.6-.045.907a6.114,6.114,0,0,1-.037.992,1.666,1.666,0,0,1-.963,1.166q-.292.146-.583.3a2.664,2.664,0,0,0-1.19,1.27,6.376,6.376,0,0,1-.326.624,1.685,1.685,0,0,1-1.425.831,8.5,8.5,0,0,1-.859-.032,2.576,2.576,0,0,0-1.629.446c-.147.1-.3.2-.447.291a1.8,1.8,0,0,1-2.152-.047,6.728,6.728,0,0,0-.772-.475,2.761,2.761,0,0,0-1.527-.223,2.144,2.144,0,0,1-1.276-.16c-.182-.1-.349-.23-.523-.347l.025-.042c.035.019.071.037.105.058a1.8,1.8,0,0,0,1.056.245c.344-.014.688-.031,1.031-.017a2.4,2.4,0,0,1,1.219.431c.207.135.408.279.623.4a1.7,1.7,0,0,0,1.8-.017c.227-.134.444-.286.667-.427a2.629,2.629,0,0,1,1.734-.365,2.227,2.227,0,0,0,1.66-.342,2.391,2.391,0,0,0,.7-1,2.788,2.788,0,0,1,1.448-1.475c.167-.075.328-.166.487-.257a1.743,1.743,0,0,0,.915-1.672,11.172,11.172,0,0,1,0-1.237,2.6,2.6,0,0,1,.538-1.233,2.557,2.557,0,0,0,.486-1,1.607,1.607,0,0,0-.169-1.117c-.154-.269-.326-.526-.491-.789a2.572,2.572,0,0,1-.4-1.574c.015-.241.021-.482.032-.723A1.956,1.956,0,0,0-1585.127,1523.325Z" transform="translate(1604.178 -1518.82)" fill="#fff"/>
  <path id="Path_199" data-name="Path 199" d="M-1604.265,1753.965l.268.256-8.51,11.416c-.018-.021-.03-.037-.044-.052-.225-.233-.22-.23-.02-.5q1.568-2.1,3.133-4.194l3.387-4.542q.746-1,1.489-2C-1604.469,1754.223-1604.373,1754.1-1604.265,1753.965Z" transform="translate(1617.661 -1735.153)" fill="#fff"/>
  <path id="Path_200" data-name="Path 200" d="M-1427.96,1843.122c.223.289.448.576.667.867.384.51.765,1.024,1.131,1.567l-.566-.233q-2.111-.878-4.221-1.757c-.471-.2-.746-.006-.7.5.04.468.1.935.148,1.4q.115,1.077.23,2.155.078.735.156,1.471c.005.048.007.1.012.175a.607.607,0,0,1-.276-.429c-.106-1.131-.236-2.259-.356-3.388-.061-.576-.123-1.152-.178-1.729a.411.411,0,0,1,.611-.457q2.049.851,4.1,1.708a7.384,7.384,0,0,0,.817.3c-.114-.159-.226-.321-.343-.478-.377-.506-.757-1.01-1.133-1.517a1.328,1.328,0,0,1-.09-.164Z" transform="translate(1448.073 -1818.777)" fill="#fff"/>
  <path id="Path_201" data-name="Path 201" d="M-1687.012,1844.966c-.359.144-.714.281-1.065.426q-1.9.79-3.8,1.583c-.274.114-.276.111-.479-.17.207-.089.408-.178.612-.263l4.129-1.723c.27-.112.449-.078.586.107C-1687.016,1844.948-1687.008,1844.976-1687.012,1844.966Z" transform="translate(1692.359 -1820.312)" fill="#fff"/>
  <path id="Path_202" data-name="Path 202" d="M-1428.715,1762.064c.182.226.37.447.544.679q.987,1.317,1.965,2.64a.434.434,0,0,1,.082.155.2.2,0,0,1-.042-.033q-1.245-1.67-2.488-3.34a.847.847,0,0,1-.057-.1Z" transform="translate(1445.069 -1742.746)" fill="#fff"/>
  <path id="Path_203" data-name="Path 203" d="M-1644.118,1688.558a5.871,5.871,0,0,1,1.451.886A7.237,7.237,0,0,1-1644.118,1688.558Z" transform="translate(1647.111 -1673.804)" fill="#fff"/>
  <path id="Path_204" data-name="Path 204" d="M-1430.9,1478.632a6.38,6.38,0,0,1-.868-1.418c.156.089.227.2.472.678C-1431.174,1478.14-1431.037,1478.383-1430.9,1478.632Z" transform="translate(1447.936 -1475.569)" fill="#fff"/>
  <path id="Path_205" data-name="Path 205" d="M-1381.959,1824.719c-.085-.1-.175-.194-.253-.3-.225-.3-.445-.595-.667-.892l.036-.027.88,1.221Z" transform="translate(1402.077 -1800.377)" fill="#fff"/>
  <path id="Path_206" data-name="Path 206" d="M-1434.685,1754.145l-.4-.491.044-.032.352.527Z" transform="translate(1451.043 -1734.832)" fill="#fff"/>
  <path id="Path_207" data-name="Path 207" d="M-1623.528,1503.649a6.5,6.5,0,0,1,6.439-6.5,6.5,6.5,0,0,1,6.565,6.6,6.494,6.494,0,0,1-6.532,6.406A6.5,6.5,0,0,1-1623.528,1503.649Zm3.229,3.93a.615.615,0,0,0,.668.687,1.228,1.228,0,0,0,.367-.139q1.054-.545,2.1-1.1a.263.263,0,0,1,.283,0c.729.386,1.464.765,2.193,1.151a.621.621,0,0,0,.7-.027.629.629,0,0,0,.231-.647c-.137-.808-.273-1.617-.421-2.424a.289.289,0,0,1,.1-.3c.584-.561,1.162-1.128,1.743-1.692a.637.637,0,0,0,.211-.682.623.623,0,0,0-.577-.441q-1.209-.174-2.417-.349a.269.269,0,0,1-.233-.165c-.358-.743-.729-1.48-1.088-2.222a.614.614,0,0,0-.579-.388.613.613,0,0,0-.581.383c-.355.738-.723,1.47-1.078,2.207a.311.311,0,0,1-.272.193q-1.218.167-2.434.349a.6.6,0,0,0-.545.476.624.624,0,0,0,.206.62c.588.574,1.178,1.144,1.762,1.722a.323.323,0,0,1,.1.23c-.074.487-.166.971-.25,1.457C-1620.179,1506.863-1620.243,1507.247-1620.3,1507.579Z" transform="translate(1627.798 -1494.27)" fill="#fff"/>
  <path id="Path_208" data-name="Path 208" d="M-1638.348,1492.721a7.247,7.247,0,0,1-1.645-6.426,7.262,7.262,0,0,1,5.6-5.736,7.226,7.226,0,0,1,6.592,1.561,7.523,7.523,0,0,0-6.156-1.343,7.3,7.3,0,0,0-4.232,2.586A7.508,7.508,0,0,0-1638.348,1492.721Z" transform="translate(1643.415 -1478.483)" fill="#fff"/>
  <path id="Path_209" data-name="Path 209" d="M-1586.13,1546.018a6.683,6.683,0,0,0,5.644,1.283,6.5,6.5,0,0,0,3.673-2.225,6.725,6.725,0,0,0,.237-8.367,6.656,6.656,0,0,1,.028,8.636A6.673,6.673,0,0,1-1586.13,1546.018Z" transform="translate(1592.719 -1531.374)" fill="#fff"/>
  <path id="Path_210" data-name="Path 210" d="M-1565.849,1562.524c.1-.565.181-1.1.282-1.624a.759.759,0,0,0-.235-.748c-.334-.316-.661-.638-.995-.954a1.33,1.33,0,0,0-.2-.13l.049-.066,1.268-.187c.1-.015.2-.031.307-.041a.751.751,0,0,0,.653-.48c.2-.439.422-.865.635-1.3.022-.044.048-.086.089-.157.065.128.117.226.166.327.2.4.4.788.584,1.188a.651.651,0,0,0,.536.4c.534.075,1.067.154,1.6.232.022,0,.043.008.095.018-.056.059-.1.1-.139.146-.343.331-.682.666-1.031.99a.764.764,0,0,0-.246.76c.094.49.173.982.257,1.473.007.039.009.078.016.143l-.973-.509-.548-.287a.65.65,0,0,0-.655.008c-.453.246-.911.483-1.367.723C-1565.74,1562.472-1565.78,1562.491-1565.849,1562.524Z" transform="translate(1574.773 -1550.257)" fill="#fff"/>
  <path id="Path_211" data-name="Path 211" d="M-1547.5,1594.559a1.633,1.633,0,0,0-.01-.17c-.1-.616-.207-1.232-.319-1.846a.563.563,0,0,1,.17-.56c.425-.4.841-.814,1.261-1.222.049-.047.1-.091.168-.15l.263.24c-.034.038-.064.077-.1.111-.435.425-.864.856-1.309,1.271a.605.605,0,0,0-.195.6c.115.637.223,1.275.333,1.913a.3.3,0,0,1-.01.063c-.2-.1-.387-.194-.575-.292-.416-.217-.833-.433-1.245-.657a.518.518,0,0,0-.537,0c-.533.288-1.071.566-1.6.853-.13.07-.242.116-.332-.052-.019-.037-.063-.06-.111-.1a1.736,1.736,0,0,1,.158-.109c.547-.29,1.1-.577,1.642-.868a.488.488,0,0,1,.491,0c.567.3,1.136.6,1.7.9C-1547.613,1594.508-1547.567,1594.528-1547.5,1594.559Z" transform="translate(1560.381 -1581.932)" fill="#fff"/>
  <path id="Path_212" data-name="Path 212" d="M-1589.627,1527.95a.5.5,0,0,0-.521.335c-.365.752-.739,1.5-1.105,2.251a.277.277,0,0,1-.241.178c-.834.115-1.668.239-2.5.365-.353.054-.448.169-.459.521a.408.408,0,0,1-.259-.407.412.412,0,0,1,.368-.373c.323-.05.647-.093.97-.14.539-.078,1.077-.162,1.617-.233a.264.264,0,0,0,.231-.166c.358-.737.722-1.472,1.085-2.207.033-.067.069-.132.106-.2A.393.393,0,0,1-1589.627,1527.95Z" transform="translate(1600.77 -1522.912)" fill="#fff"/>
  <path id="Path_213" data-name="Path 213" d="M-1567.852,1624.425a.41.41,0,0,1-.243-.523c.067-.384.131-.769.2-1.153.085-.49.171-.98.26-1.489.164.143.273.256.225.5-.159.8-.284,1.609-.42,2.416C-1567.846,1624.254-1567.846,1624.339-1567.852,1624.425Z" transform="translate(1575.817 -1610.68)" fill="#fff"/>
  <path id="Path_214" data-name="Path 214" d="M-1488.351,1572.66c-.379-.053-.73-.1-1.08-.152-.515-.075-1.029-.165-1.546-.223-.189-.021-.271-.141-.372-.282l.5.071,2.109.308A.447.447,0,0,1-1488.351,1572.66Z" transform="translate(1503.818 -1564.479)" fill="#fff"/>
  <path id="Path_215" data-name="Path 215" d="M-1515.76,1554.392a.858.858,0,0,1-.141-.162c-.292-.577-.578-1.156-.866-1.735l.037-.027a1.855,1.855,0,0,1,.2.271c.273.539.538,1.082.805,1.624Z" transform="translate(1527.66 -1546.156)" fill="#fff"/>
</svg>
