<svg xmlns="http://www.w3.org/2000/svg" width="31.515" height="30.496" viewBox="0 0 31.515 30.496">
  <path id="Path_378" data-name="Path 378" d="M-337.958,1001.581a.565.565,0,0,1,.819.375.565.565,0,0,1-.265.614q-1.717,1.246-3.432,2.495-5.754,4.185-11.508,8.37a1.686,1.686,0,0,1-1.721.218q-6.746-2.7-13.49-5.4a.6.6,0,0,1-.255-.2,3.973,3.973,0,0,1-.273-4.456.2.2,0,0,0,0-.222,3.935,3.935,0,0,1-.005-4,.223.223,0,0,0,0-.248,3.976,3.976,0,0,1,.226-4.362,1.055,1.055,0,0,1,.253-.257q7.456-5.427,14.914-10.85a1.7,1.7,0,0,1,1.735-.215q6.705,2.683,13.411,5.363a.6.6,0,0,1,.425.489.534.534,0,0,1-.286.563,1.779,1.779,0,0,0-.823,1.384,2.965,2.965,0,0,0,.257,1.854,1.881,1.881,0,0,1,.333-.052.539.539,0,0,1,.5.385.553.553,0,0,1-.178.6,2.753,2.753,0,0,1-.318.231.849.849,0,0,0-.328.395,3.022,3.022,0,0,0-.058,2.554c.018.044.04.086.062.132.059-.019.108-.04.159-.051a.551.551,0,0,1,.632.3.553.553,0,0,1-.157.683c-.132.106-.276.2-.41.3a.47.47,0,0,0-.129.135,3.017,3.017,0,0,0-.129,2.8.294.294,0,0,0,.019.039A.166.166,0,0,0-337.958,1001.581Zm-29.159-1.626a.251.251,0,0,0-.028.028.454.454,0,0,0-.029.05,2.893,2.893,0,0,0,.131,2.9.376.376,0,0,0,.178.134q6.589,2.64,13.178,5.278a.678.678,0,0,0,.719-.092q6.717-4.893,13.44-9.778l.9-.656a3.9,3.9,0,0,1-.374-2.56c-.073.049-.117.077-.159.108l-13.206,9.6a1.643,1.643,0,0,1-1.669.21q-5.807-2.321-11.612-4.645ZM-339,991.024c-.086.059-.137.093-.187.13q-6.59,4.792-13.181,9.585a1.642,1.642,0,0,1-1.668.208l-11.733-4.693-1.354-.54c-.017.028-.032.047-.042.068a2.9,2.9,0,0,0,.123,2.918.377.377,0,0,0,.178.135q6.609,2.647,13.219,5.29a.615.615,0,0,0,.641-.08q7.125-5.186,14.253-10.367c.042-.03.082-.064.123-.1A3.9,3.9,0,0,1-339,991.024Zm0,8.477c-.075.051-.119.079-.161.11q-6.591,4.793-13.181,9.587a1.684,1.684,0,0,1-1.72.217l-12.855-5.143c-.067-.027-.135-.051-.2-.077a.614.614,0,0,0-.045.067,2.893,2.893,0,0,0,.135,2.93.331.331,0,0,0,.157.115q6.622,2.653,13.246,5.3a.593.593,0,0,0,.615-.081q7.12-5.181,14.241-10.359l.144-.108A3.891,3.891,0,0,1-339,999.5Zm-4.626-9c-.073-.032-.12-.054-.168-.073q-4.088-1.636-8.175-3.274a.214.214,0,0,0-.236.03q-1.429,1.045-2.863,2.085c-.038.028-.073.059-.121.1.063.028.11.05.158.069q4.088,1.636,8.176,3.273a.213.213,0,0,0,.237-.027c.437-.324.879-.642,1.319-.962Z" transform="translate(368.638 -983.299)" fill="#fff"/>
</svg>
